<svg width="44" height="22" viewBox="0 0 44 22" fill="none" xmlns="http://www.w3.org/2000/svg">
<path fill-rule="evenodd" clip-rule="evenodd" d="M6.47049 5.45806C6.47049 8.16111 8.6509 10.3579 11.354 10.3579C14.057 10.3579 16.2538 8.16111 16.2538 5.45806C16.2538 2.755 14.057 0.558258 11.354 0.558258C8.6509 0.558258 6.47049 2.755 6.47049 5.45806ZM12.8824 11.3222C12.4091 11.216 12.0391 11.1745 11.354 11.1745C7.54028 11.1745 0.737732 13.0854 0.737732 16.8909V20.7907C0.737732 21.343 1.18545 21.7907 1.73773 21.7907H9.27833C9.87025 21.7907 10.3306 21.2724 10.284 20.6823C9.83045 14.9394 10.8958 14.292 12.2736 13.4547C12.6105 13.2499 12.9661 13.0339 13.3227 12.7292C13.8472 12.281 13.5556 11.4732 12.8824 11.3222ZM21.7795 10.3579C24.4826 10.3579 26.663 8.16111 26.663 5.45806C26.663 2.755 24.4826 0.55826 21.7795 0.55826C19.0765 0.55826 16.8797 2.755 16.8797 5.45806C16.8797 8.16111 19.0765 10.3579 21.7795 10.3579ZM21.7795 11.1745C17.9659 11.1745 11.1633 13.0854 11.1633 16.8909V20.7907C11.1633 21.343 11.611 21.7907 12.1633 21.7907H31.3958C31.9481 21.7907 32.3958 21.343 32.3958 20.7907V16.8909C32.3958 13.0854 25.5932 11.1745 21.7795 11.1745ZM32.3959 10.3579C35.0989 10.3579 37.2793 8.16111 37.2793 5.45806C37.2793 2.755 35.0989 0.55826 32.3959 0.55826C29.6928 0.55826 27.4961 2.755 27.4961 5.45806C27.4961 8.16111 29.6928 10.3579 32.3959 10.3579ZM32.3959 11.1745C31.7107 11.1745 31.3407 11.216 30.8674 11.3222C30.1942 11.4732 29.9026 12.281 30.4272 12.7292C30.7838 13.0339 31.1393 13.2499 31.4762 13.4547C32.854 14.292 33.9194 14.9394 33.4658 20.6823C33.4192 21.2724 33.8796 21.7907 34.4715 21.7907H42.0121C42.5644 21.7907 43.0121 21.343 43.0121 20.7907V16.8909C43.0121 13.0854 36.2096 11.1745 32.3959 11.1745Z" fill="#979EA6"/>
</svg>
