<svg width="45" height="38" viewBox="0 0 45 38" fill="none" xmlns="http://www.w3.org/2000/svg">
<path d="M29.8326 24.9769L35.9162 30.131" stroke="#979EA6" stroke-width="2.4"/>
<path d="M9.41852 23.354L16.6788 21.9874" stroke="#979EA6" stroke-width="2.4"/>
<path d="M30.3451 9.26055L27.5264 14.9833" stroke="#979EA6" stroke-width="2.4"/>
<path d="M32.5264 0.450562C29.7639 0.450562 27.5264 2.68806 27.5264 5.45056C27.5264 8.21306 29.7639 10.4506 32.5264 10.4506C35.2889 10.4506 37.5264 8.21306 37.5264 5.45056C37.5264 2.68806 35.2889 0.450562 32.5264 0.450562ZM32.5264 1.95056C33.3539 1.95056 34.0264 2.62306 34.0264 3.45056C34.0264 4.28056 33.3539 4.95056 32.5264 4.95056C31.6989 4.95056 31.0264 4.28056 31.0264 3.45056C31.0264 2.62306 31.6989 1.95056 32.5264 1.95056ZM32.5264 9.05056C31.2739 9.05056 30.1739 8.41056 29.5264 7.44056C29.5389 6.44806 31.5289 5.90056 32.5264 5.90056C33.5239 5.90056 35.5114 6.44806 35.5264 7.44056C34.8789 8.41056 33.7789 9.05056 32.5264 9.05056Z" fill="#979EA6"/>
<path d="M24.3319 12.4474C19.8044 12.4474 16.1373 16.1145 16.1373 20.642C16.1373 25.1695 19.8044 28.8365 24.3319 28.8365C28.8594 28.8365 32.5265 25.1695 32.5265 20.642C32.5265 16.1145 28.8594 12.4474 24.3319 12.4474ZM24.3319 14.9058C25.6881 14.9058 26.7903 16.0079 26.7903 17.3641C26.7903 18.7244 25.6881 19.8225 24.3319 19.8225C22.9757 19.8225 21.8735 18.7244 21.8735 17.3641C21.8735 16.0079 22.9757 14.9058 24.3319 14.9058ZM24.3319 26.5421C22.2792 26.5421 20.4764 25.4931 19.4152 23.9034C19.4356 22.2768 22.6971 21.3795 24.3319 21.3795C25.9667 21.3795 29.224 22.2768 29.2486 23.9034C28.1874 25.4931 26.3846 26.5421 24.3319 26.5421Z" fill="#979EA6"/>
<path d="M5.22772 18.8365C2.46522 18.8365 0.227722 21.074 0.227722 23.8365C0.227722 26.599 2.46522 28.8365 5.22772 28.8365C7.99022 28.8365 10.2277 26.599 10.2277 23.8365C10.2277 21.074 7.99022 18.8365 5.22772 18.8365ZM5.22772 20.3365C6.05522 20.3365 6.72772 21.009 6.72772 21.8365C6.72772 22.6665 6.05522 23.3365 5.22772 23.3365C4.40022 23.3365 3.72772 22.6665 3.72772 21.8365C3.72772 21.009 4.40022 20.3365 5.22772 20.3365ZM5.22772 27.4365C3.97522 27.4365 2.87522 26.7965 2.22772 25.8265C2.24022 24.834 4.23022 24.2865 5.22772 24.2865C6.22522 24.2865 8.21272 24.834 8.22772 25.8265C7.58022 26.7965 6.48022 27.4365 5.22772 27.4365Z" fill="#979EA6"/>
<path d="M39.0121 27.554C36.2496 27.554 34.0121 29.7915 34.0121 32.554C34.0121 35.3165 36.2496 37.554 39.0121 37.554C41.7746 37.554 44.0121 35.3165 44.0121 32.554C44.0121 29.7915 41.7746 27.554 39.0121 27.554ZM39.0121 29.054C39.8396 29.054 40.5121 29.7265 40.5121 30.554C40.5121 31.384 39.8396 32.054 39.0121 32.054C38.1846 32.054 37.5121 31.384 37.5121 30.554C37.5121 29.7265 38.1846 29.054 39.0121 29.054ZM39.0121 36.154C37.7596 36.154 36.6596 35.514 36.0121 34.544C36.0246 33.5515 38.0146 33.004 39.0121 33.004C40.0096 33.004 41.9971 33.5515 42.0121 34.544C41.3646 35.514 40.2646 36.154 39.0121 36.154Z" fill="#979EA6"/>
</svg>
