<svg width="30" height="27" viewBox="0 0 30 27" fill="none" xmlns="http://www.w3.org/2000/svg">
<path fill-rule="evenodd" clip-rule="evenodd" d="M26.2155 8.76686H29.1045V21.7671C29.1045 24.1604 27.1643 26.1005 24.7711 26.1005C22.3778 26.1005 20.4377 24.1604 20.4377 21.7671V0.100037H23.3266V21.7671C23.3266 22.5649 23.9733 23.2116 24.7711 23.2116C25.5688 23.2116 26.2155 22.5649 26.2155 21.7671V8.76686Z" fill="#045AFC"/>
<path fill-rule="evenodd" clip-rule="evenodd" d="M29.1045 7.32236V10.2113H23.3266V7.32236H29.1045Z" fill="#045AFC"/>
<path fill-rule="evenodd" clip-rule="evenodd" d="M24.7711 23.2116V26.1005H4.5485C2.15522 26.1005 0.215088 24.1604 0.215088 21.7671V0.100037H21.8821V2.98898C21.8821 6.89416 21.7526 10.1383 21.6464 12.8005V12.8006V12.8006V12.8006C21.3454 20.3397 21.2308 23.2116 24.7711 23.2116ZM11.7708 5.87792V11.6558H5.99294V5.87792H11.7708ZM17.5487 10.2113V7.32237H13.2153V10.2113H17.5487ZM17.5487 13.1002V15.9892H5.99294V13.1002H17.5487ZM17.5487 20.3226V17.4337H5.99294V20.3226H17.5487Z" fill="#045AFC"/>
</svg>
