<svg width="32" height="31" viewBox="0 0 32 31" fill="none" xmlns="http://www.w3.org/2000/svg">
<path fill-rule="evenodd" clip-rule="evenodd" d="M15.5062 1.97386C12.6895 1.97386 10.4062 4.2572 10.4062 7.07386V12.9113H21.3437V7.07386C21.3437 4.25721 19.0603 1.97386 16.2437 1.97386H15.5062ZM23.1437 12.9113V7.07386C23.1437 3.26309 20.0544 0.173859 16.2437 0.173859H15.5062C11.6954 0.173859 8.60619 3.26309 8.60619 7.07386V12.9113H4.72964C4.30063 12.9113 3.93125 13.2141 3.84712 13.6348L0.662749 29.5567C0.609869 29.8211 0.678319 30.0953 0.849264 30.3038C1.02021 30.5123 1.27564 30.6332 1.54527 30.6332H30.2046C30.4742 30.6332 30.7297 30.5123 30.9006 30.3038C31.0715 30.0953 31.14 29.8211 31.0871 29.5567L27.9027 13.6348C27.8186 13.2141 27.4492 12.9113 27.0202 12.9113H23.1437ZM17.0977 21.6573C18.4897 22.0667 19.0629 22.7217 19.0629 23.8798C19.0629 25.2717 18.0686 26.2309 16.5129 26.383V27.3889H15.4718V26.3596C14.0682 26.1607 13.0739 25.2483 12.84 23.8915L13.8693 23.7277C14.1149 24.7687 14.9805 25.4121 16.1152 25.4121C17.2615 25.4121 18.0452 24.8038 18.0452 23.9265C18.0452 23.2949 17.6943 22.9323 16.8053 22.6633L14.887 22.0667C13.7523 21.7158 13.1558 21.0023 13.1558 20.008C13.1558 18.7213 14.0565 17.8206 15.4718 17.6569V16.6392H16.5129V17.6803C17.8347 17.8791 18.7587 18.7564 19.0161 20.1016L17.9633 20.2887C17.7996 19.3062 17.0042 18.6394 15.9397 18.6277C14.9454 18.616 14.1968 19.1775 14.1968 19.9612C14.1968 20.5344 14.6062 20.9087 15.5186 21.1894L17.0977 21.6573Z" fill="#979EA6"/>
</svg>
