<svg width="28" height="29" viewBox="0 0 28 29" fill="none" xmlns="http://www.w3.org/2000/svg">
<path fill-rule="evenodd" clip-rule="evenodd" d="M20.2267 6.83454C20.2267 10.3503 17.3907 13.2076 13.8749 13.2076C10.3591 13.2076 7.50187 10.3503 7.50187 6.83454C7.50187 3.31874 10.3591 0.461487 13.8749 0.461487C17.3907 0.461487 20.2267 3.31874 20.2267 6.83454ZM0.0666504 21.705C0.0666504 16.7553 8.91457 14.2698 13.8749 14.2698C18.8353 14.2698 27.6832 16.7553 27.6832 21.705V27.078C27.6832 27.6303 27.2355 28.078 26.6832 28.078H1.06665C0.514366 28.078 0.0666504 27.6303 0.0666504 27.078V21.705ZM15.6105 17.3992C15.3975 17.1862 15.3975 16.8408 15.6105 16.6278C15.8235 16.4148 16.1689 16.4148 16.3819 16.6278L19.1094 19.3553C19.3224 19.5683 19.3224 19.9137 19.1094 20.1267L16.3819 22.8542C16.1689 23.0672 15.8235 23.0672 15.6105 22.8542C15.3975 22.6412 15.3975 22.2958 15.6105 22.0827L17.4067 20.2865H11.4504C10.4127 20.2865 9.5715 21.1277 9.5715 22.1654C9.5715 23.2031 10.4127 24.0443 11.4504 24.0443H12.6626C12.9639 24.0443 13.2081 24.2886 13.2081 24.5898C13.2081 24.8911 12.9639 25.1353 12.6626 25.1353H11.4504C9.81019 25.1353 8.48051 23.8056 8.48051 22.1654C8.48051 20.5252 9.81019 19.1955 11.4504 19.1955H17.4067L15.6105 17.3992Z" fill="#979EA6"/>
</svg>
