<svg width="32" height="30" viewBox="0 0 32 30" fill="none" xmlns="http://www.w3.org/2000/svg">
<path d="M11.2128 25.3997H9.9696C9.88027 25.3997 9.79199 25.3805 9.71078 25.3433L2.64228 22.1052C2.42746 22.007 2.19142 21.9643 1.95582 21.9811C1.72022 21.9979 1.4926 22.0735 1.29384 22.2011C1.09509 22.3287 0.931552 22.5042 0.818243 22.7114C0.704935 22.9187 0.64548 23.1511 0.645332 23.3873V23.5225C0.644469 23.7846 0.717026 24.0416 0.854783 24.2646C0.99254 24.4876 1.18999 24.6675 1.42476 24.784L8.67268 28.408C9.62257 28.8812 10.6691 29.1281 11.7303 29.1295H24.2668V21.4324L23.9148 21.2562C22.7321 20.6651 21.4196 20.3818 20.0984 20.4325C18.7773 20.4833 17.4903 20.8664 16.3565 21.5464L16.2982 21.5814C16.2016 21.6394 16.091 21.67 15.9783 21.67H11.2128C10.8831 21.67 10.5669 21.801 10.3337 22.0342C10.1006 22.2673 9.9696 22.5835 9.9696 22.9133C9.9696 23.243 10.1006 23.5592 10.3337 23.7924C10.5669 24.0255 10.8831 24.1565 11.2128 24.1565C11.3777 24.1565 11.5358 24.222 11.6524 24.3386C11.769 24.4552 11.8345 24.6133 11.8345 24.7781C11.8345 24.943 11.769 25.1011 11.6524 25.2177C11.5358 25.3343 11.3777 25.3997 11.2128 25.3997Z" fill="#045AFC"/>
<path d="M14.2309 3.98675H17.3117C17.3117 3.98675 16.7527 2.34941 17.4674 1.67772C18.1822 1.00603 18.2001 0.878662 18.2001 0.878662H13.5486C13.666 1.61983 15.1457 2.41535 14.2309 3.98675Z" fill="#045AFC"/>
<path d="M31.1046 21.67H25.5101V29.1295H31.1046V21.67ZM27.9965 27.8862C27.7507 27.8862 27.5103 27.8133 27.3058 27.6767C27.1014 27.5401 26.942 27.3459 26.8479 27.1188C26.7538 26.8916 26.7292 26.6416 26.7772 26.4004C26.8252 26.1593 26.9436 25.9378 27.1174 25.7639C27.2913 25.59 27.5128 25.4716 27.754 25.4236C27.9952 25.3757 28.2451 25.4003 28.4723 25.4944C28.6995 25.5885 28.8936 25.7478 29.0303 25.9523C29.1669 26.1567 29.2398 26.3971 29.2398 26.643C29.2394 26.9726 29.1083 27.2886 28.8752 27.5217C28.6421 27.7547 28.3261 27.8858 27.9965 27.8862Z" fill="#045AFC"/>
<path d="M12.7669 4.88632C9.33827 6.28215 8.1048 8.28297 8.1048 11.8469V19.8052C8.1048 19.9397 8.06118 20.0705 7.98048 20.1781L6.48859 22.1673C6.42765 22.2486 6.37689 22.337 6.33746 22.4306L8.8122 23.5643C8.71282 23.1956 8.6996 22.8089 8.77358 22.4342C8.84756 22.0595 9.00674 21.7069 9.23883 21.4035C9.47091 21.1002 9.76966 20.8544 10.112 20.685C10.4543 20.5156 10.831 20.4273 11.2129 20.4268H15.8073C17.0913 19.6765 18.5396 19.2524 20.0255 19.1914C21.5114 19.1304 22.9895 19.4346 24.3307 20.0771C24.289 19.9925 24.2672 19.8995 24.2669 19.8052V11.8469C24.2667 10.2134 23.7043 8.62976 22.674 7.36216C21.6437 6.09456 20.2084 5.2203 18.6094 4.88632H12.7669ZM14.9426 12.3457H17.4291C18.0061 12.3457 18.5595 12.575 18.9675 12.983C19.3755 13.391 19.6047 13.9444 19.6047 14.5214C19.6047 15.0984 19.3755 15.6518 18.9675 16.0598C18.5595 16.4678 18.0061 16.6971 17.4291 16.6971H16.8075V17.9403H15.5642V16.6971H13.3886V15.4538H17.4291C17.6764 15.4538 17.9135 15.3556 18.0884 15.1807C18.2633 15.0059 18.3615 14.7687 18.3615 14.5214C18.3615 14.2741 18.2633 14.0369 18.0884 13.8621C17.9135 13.6872 17.6764 13.589 17.4291 13.589H14.9426C14.3656 13.589 13.8122 13.3598 13.4042 12.9517C12.9962 12.5437 12.7669 11.9903 12.7669 11.4133C12.7669 10.8363 12.9962 10.2829 13.4042 9.87489C13.8122 9.46687 14.3656 9.23765 14.9426 9.23765H15.5642V7.99441H16.8075V9.23765H18.9831V10.4809H14.9426C14.6953 10.4809 14.4581 10.5791 14.2833 10.754C14.1084 10.9289 14.0102 11.166 14.0102 11.4133C14.0102 11.6606 14.1084 11.8978 14.2833 12.0726C14.4581 12.2475 14.6953 12.3457 14.9426 12.3457Z" fill="#045AFC"/>
</svg>
