<svg width="26" height="26" viewBox="0 0 26 26" fill="none" xmlns="http://www.w3.org/2000/svg">
<path fill-rule="evenodd" clip-rule="evenodd" d="M12.1841 0.266724H13.8159C15.1357 0.266724 16.2094 1.29915 16.2094 2.56804V3.09885C16.7705 3.27127 17.3156 3.48884 17.8393 3.74939L18.2302 3.37356C19.1759 2.46321 20.6933 2.48538 21.6154 3.37327L22.7688 4.48225C23.6909 5.36785 23.717 6.82693 22.7691 7.73738L22.3779 8.11355C22.6489 8.61712 22.8752 9.14124 23.0545 9.68079H23.6065C24.9262 9.68079 26 10.7132 26 11.9822V13.5512C26 14.8202 24.9262 15.8527 23.6065 15.8527H23.0545C22.8752 16.3923 22.6489 16.9163 22.3779 17.4199L22.7688 17.7958C23.7173 18.7068 23.6908 20.1657 22.7691 21.0509L21.6159 22.1598C20.6958 23.0456 19.178 23.0723 18.2305 22.1601L17.8393 21.784C17.3156 22.0446 16.7705 22.2621 16.2094 22.4345V22.9653C16.2094 24.2343 15.1357 25.2667 13.8159 25.2667H12.1841C10.8643 25.2667 9.79063 24.2343 9.79063 22.9653V22.4345C9.22954 22.2621 8.68441 22.0446 8.1607 21.784L7.76984 22.1598C6.82414 23.0702 5.30669 23.048 4.38456 22.1601L3.23116 21.0511C2.30913 20.1656 2.28297 18.7065 3.23086 17.796L3.62207 17.4199C3.35106 16.9163 3.12482 16.3922 2.94552 15.8527H2.39352C1.07377 15.8527 0 14.8202 0 13.5512V11.9822C0 10.7132 1.07377 9.68079 2.39347 9.68079H2.94546C3.12477 9.14119 3.351 8.61712 3.62202 8.11355L3.23111 7.73767C2.28267 6.82668 2.30918 5.36775 3.2308 4.48254L4.3841 3.37366C5.3041 2.48787 6.8219 2.46111 7.76943 3.37331L8.16065 3.74949C8.68435 3.48889 9.22949 3.27131 9.79057 3.09895V2.56814C9.79057 1.29915 10.8643 0.266724 12.1841 0.266724ZM7.34294 12.7667C7.34294 9.76743 9.88063 7.32729 13 7.32729C16.1193 7.32729 18.657 9.76743 18.657 12.7667C18.657 15.7661 16.1193 18.2062 13 18.2062C9.88063 18.2062 7.34294 15.7661 7.34294 12.7667Z" fill="#979EA6"/>
</svg>
