<svg width="30" height="28" viewBox="0 0 30 28" fill="none" xmlns="http://www.w3.org/2000/svg">
<path d="M27.5181 22.7487V24.2361C27.5181 25.8797 26.1869 27.211 24.5433 27.211H3.71908C2.07546 27.211 0.744202 25.8797 0.744202 24.2361V3.41192C0.744202 1.7683 2.07546 0.437042 3.71908 0.437042H24.5433C26.1869 0.437042 27.5181 1.7683 27.5181 3.41192V4.89937H14.1312C12.4875 4.89937 11.1563 6.23063 11.1563 7.87425V19.7738C11.1563 21.4174 12.4875 22.7487 14.1312 22.7487H27.5181ZM14.1312 19.7738H29.0056V7.87425H14.1312V19.7738ZM20.0809 16.0552C18.8464 16.0552 17.8498 15.0586 17.8498 13.824C17.8498 12.5894 18.8464 11.5928 20.0809 11.5928C21.3155 11.5928 22.3121 12.5894 22.3121 13.824C22.3121 15.0586 21.3155 16.0552 20.0809 16.0552Z" fill="#979EA6"/>
</svg>
