<svg width="36" height="36" viewBox="0 0 36 36" fill="none" xmlns="http://www.w3.org/2000/svg">
<rect x="0.316895" y="0.569336" width="34.7681" height="34.7633" rx="4" fill="black"/>
<path d="M14.4204 28.42C10.8867 28.4003 7.96379 21.4274 7.96379 17.8763C7.96379 12.0755 12.4654 10.8056 14.2003 10.8056C14.9821 10.8056 15.817 11.1024 16.5533 11.365C17.0683 11.5482 17.6008 11.7373 17.897 11.7373C18.0743 11.7373 18.492 11.5765 18.8609 11.4353C19.6475 11.1326 20.6263 10.7563 21.7662 10.7563C21.7682 10.7563 21.7709 10.7563 21.7729 10.7563C22.6241 10.7563 25.2047 10.9369 26.7562 13.1892L27.1196 13.7171L26.5966 14.0986C25.8494 14.6436 24.486 15.6378 24.486 17.6071C24.486 19.9395 26.03 20.8365 26.7718 21.2679C27.0992 21.4583 27.4382 21.6546 27.4382 22.0841C27.4382 22.3645 25.1232 28.3852 21.7614 28.3852C20.9388 28.3852 20.3573 28.1462 19.8444 27.9354C19.3255 27.722 18.8778 27.5382 18.1381 27.5382C17.7631 27.5382 17.2889 27.7095 16.787 27.8914C16.101 28.1389 15.3245 28.42 14.4435 28.42H14.4204Z" fill="white"/>
<path d="M22.1223 5.46875C22.2099 8.52038 19.9522 10.6375 17.6972 10.5047C17.3256 8.06938 19.9519 5.46875 22.1223 5.46875Z" fill="white"/>
</svg>
