<svg width="36" height="36" viewBox="0 0 36 36" fill="none" xmlns="http://www.w3.org/2000/svg">
<path d="M33.2945 35.1784H3.2372C1.91473 35.1784 0.832642 34.0963 0.832642 32.7739V2.71657C0.832642 1.3941 1.91473 0.312012 3.2372 0.312012H33.2945C34.617 0.312012 35.6991 1.3941 35.6991 2.71657V32.7739C35.6991 34.0963 34.617 35.1784 33.2945 35.1784Z" fill="#4D6FA9"/>
<path d="M30.2888 6.32331V12.3348H24.8785C24.2172 12.3348 23.6762 12.8758 23.6762 13.5371V17.144H29.6877V23.1554H23.6762V35.1783H17.6647V23.1553H12.8556V17.1439H17.6647V13.537C17.6647 9.74975 20.5502 6.62383 24.2773 6.32324H30.2888V6.32331Z" fill="white"/>
</svg>
