<svg width="36" height="36" viewBox="0 0 36 36" fill="none" xmlns="http://www.w3.org/2000/svg">
<path d="M33.4664 35.1781H3.32612C1.99999 35.1781 0.914917 34.093 0.914917 32.7669V2.62653C0.914917 1.30041 1.99999 0.215332 3.32612 0.215332H33.4664C34.7926 0.215332 35.8776 1.30041 35.8776 2.62653V32.7669C35.8776 34.093 34.7926 35.1781 33.4664 35.1781Z" fill="#F44336"/>
<path fill-rule="evenodd" clip-rule="evenodd" d="M25.8108 9.86296C25.784 9.90781 25.7525 9.94993 25.7177 9.98867L22.8638 12.8292C22.769 12.9296 22.6486 12.9926 22.5211 13.0174C22.3436 13.052 22.1522 13.0124 21.9969 12.8959C21.6019 12.6009 21.1805 12.3583 20.7393 12.1704C20.0038 11.8572 19.213 11.6957 18.3963 11.6957C15.7024 11.6957 13.4086 13.496 12.6485 15.9499L12.6485 15.9499C12.4885 16.4967 12.3951 17.0834 12.3951 17.6969C12.3951 18.3103 12.4884 18.897 12.6485 19.4438L12.6485 19.4438C13.4086 21.8976 15.7024 23.698 18.3963 23.698C19.7031 23.698 20.9167 23.2846 21.9169 22.5511C22.6904 21.9909 23.3439 21.2441 23.7706 20.364H18.3963C18.0228 20.364 17.7295 20.0706 17.7295 19.6972V15.6964C17.7295 15.323 18.0228 15.0296 18.3963 15.0296H28.9227H28.9227C28.9627 15.0296 29.0021 15.0332 29.0405 15.04C29.3093 15.0878 29.5295 15.2963 29.5762 15.5764C29.6303 15.8578 29.6734 16.1435 29.7056 16.431C29.7527 16.8521 29.7762 17.2768 29.7762 17.6968C29.7762 21.137 28.1965 24.2228 25.775 26.3029L25.7177 26.3518L25.7176 26.3518L25.7177 26.3519C23.7439 28.0189 21.1835 29.0769 18.3962 29.0769L18.3963 29.0768C14.2488 29.0768 10.6081 26.7919 8.63442 23.458L8.63438 23.458C7.63419 21.7777 7.01629 19.804 7.01629 17.6969C7.01629 15.5898 7.63419 13.6161 8.63438 11.9358L8.63438 11.9358C10.608 8.60178 14.2488 6.31689 18.3963 6.31689C20.553 6.31689 22.6657 6.9628 24.4695 8.12096C24.8853 8.38791 25.2846 8.68207 25.6643 9.00181C25.811 9.12188 25.891 9.30854 25.9044 9.49524C25.9094 9.56525 25.9012 9.6334 25.8828 9.69826C25.8663 9.7561 25.8417 9.81134 25.8108 9.86296Z" fill="white"/>
</svg>
