<svg width="16" height="15" viewBox="0 0 16 15" fill="none" xmlns="http://www.w3.org/2000/svg">
<path fill-rule="evenodd" clip-rule="evenodd" d="M15.241 7.59523C15.241 6.44376 14.3932 5.54206 12.991 5.54206H10.6863L10.7071 5.49024C10.728 5.43881 10.7867 5.29762 10.8437 5.16046L10.8438 5.16028L10.8439 5.16011L10.8444 5.15879C10.8947 5.03786 10.9435 4.92036 10.9639 4.87061C11.1065 4.52134 11.2105 4.23992 11.2947 3.96121C11.422 3.53998 11.491 3.16047 11.491 2.80451C11.491 1.79708 10.8099 1.17136 9.80225 0.90361C9.34775 0.782844 8.95214 0.75128 8.49104 0.751343H8.13141L7.90624 1.00722C7.65188 1.29628 7.15228 1.81723 6.5763 2.41783C5.51375 3.52578 4.19125 4.9048 3.66882 5.59912C3.53327 5.56238 3.38971 5.54266 3.24109 5.54266H1.74109C0.912662 5.54266 0.241089 6.15548 0.241089 6.91144V13.0709C0.241089 13.8269 0.912662 14.4397 1.74109 14.4397H3.24109C3.75642 14.4397 4.21105 14.2026 4.48109 13.8414C4.70861 13.9756 4.96246 14.0877 5.23838 14.1778C5.87012 14.3841 6.49668 14.4474 7.01684 14.4387L12.241 14.4391C14.3074 14.4391 15.241 11.6629 15.241 7.59523ZM4.74109 6.91144V11.7128C4.74522 12.3233 5.08409 12.6736 5.74371 12.889C6.17402 13.0294 6.63508 13.076 6.96335 13.0707L6.99105 13.0703H12.2411C13.0024 13.0703 13.7411 10.8739 13.7411 7.59515C13.7411 7.15706 13.5095 6.91076 12.9911 6.91076H9.99105C9.09514 6.91076 8.9077 6.27863 9.09454 5.59421C9.13849 5.43321 9.20274 5.25602 9.30027 5.01538C9.32365 4.95768 9.3868 4.8058 9.44575 4.66403L9.44603 4.66336L9.44644 4.66237L9.44689 4.66128C9.495 4.54559 9.5401 4.4371 9.55824 4.39266C9.68686 4.07765 9.77816 3.83072 9.84866 3.59737C9.943 3.28509 9.99105 3.02109 9.99105 2.80443C9.99105 2.49579 9.81269 2.33193 9.3829 2.21773C9.20233 2.16975 9.0246 2.1433 8.83602 2.1304C8.44139 2.56087 7.87625 3.14923 7.29458 3.7548L7.29456 3.75482C6.1675 4.92818 4.97839 6.16614 4.84733 6.44536C4.77534 6.59874 4.74194 6.7425 4.74107 6.90421L4.74109 6.91144ZM1.74115 13.0708V6.91135H3.24115V13.0708H1.74115Z" fill="#045AFC"/>
</svg>
