<svg width="36" height="36" viewBox="0 0 36 36" fill="none" xmlns="http://www.w3.org/2000/svg">
<path d="M32.8477 0.568848H3.15635C1.7743 0.568848 0.654053 1.6891 0.654053 3.07115V32.7625C0.654053 34.1446 1.7743 35.2648 3.15635 35.2648H32.8477C34.2298 35.2648 35.35 34.1446 35.35 32.7625V3.07115C35.35 1.6891 34.2298 0.568848 32.8477 0.568848V0.568848ZM12.9609 26.7941H8.73589V14.0831H12.9609V26.7941ZM10.8485 12.3474H10.821C9.40323 12.3474 8.48627 11.3714 8.48627 10.1516C8.48627 8.90428 9.43129 7.9553 10.8766 7.9553C12.3219 7.9553 13.2113 8.90428 13.2389 10.1516C13.2389 11.3714 12.3219 12.3474 10.8485 12.3474ZM28.1955 26.7941H23.971V19.994C23.971 18.285 23.3592 17.1195 21.8305 17.1195C20.6634 17.1195 19.9683 17.9057 19.6628 18.6646C19.5511 18.9362 19.5239 19.3158 19.5239 19.6957V26.7941H15.2991C15.2991 26.7941 15.3544 15.2756 15.2991 14.0831H19.5239V15.8828C20.0853 15.0167 21.0899 13.7847 23.3314 13.7847C26.1112 13.7847 28.1955 15.6014 28.1955 19.5056V26.7941Z" fill="#006699"/>
</svg>
