<svg width="36" height="36" viewBox="0 0 36 36" fill="none" xmlns="http://www.w3.org/2000/svg">
<path d="M32.4989 0.568848H2.80747C1.42543 0.568848 0.305176 1.6891 0.305176 3.07115V32.7625C0.305176 34.1446 1.42543 35.2648 2.80747 35.2648H32.4989C33.8809 35.2648 35.0012 34.1446 35.0012 32.7625V3.07115C35.0012 1.6891 33.8809 0.568848 32.4989 0.568848V0.568848ZM25.5741 14.095C25.5817 14.2657 25.5854 14.4372 25.5854 14.6096C25.5854 19.8712 21.5804 25.9386 14.2562 25.9389H14.2564H14.2562C12.0074 25.9389 9.91492 25.2797 8.15275 24.1502C8.46431 24.187 8.78143 24.2053 9.10253 24.2053C10.9682 24.2053 12.6851 23.5689 14.0481 22.5008C12.305 22.4685 10.8353 21.3173 10.3281 19.7351C10.5709 19.7817 10.8205 19.8071 11.0765 19.8071C11.4399 19.8071 11.792 19.7582 12.1266 19.6668C10.3046 19.3021 8.93205 17.6918 8.93205 15.7637C8.93205 15.7457 8.93205 15.7295 8.93258 15.7129C9.46915 16.0112 10.0827 16.1907 10.736 16.2108C9.66689 15.4974 8.96408 14.2779 8.96408 12.8964C8.96408 12.1668 9.16129 11.4833 9.5033 10.8949C11.4669 13.3043 14.4015 14.8888 17.7109 15.0553C17.6426 14.7636 17.6074 14.4597 17.6074 14.1474C17.6074 11.9492 19.3907 10.1659 21.5897 10.1659C22.7351 10.1659 23.7695 10.65 24.4962 11.424C25.4033 11.2451 26.2552 10.9137 27.0247 10.4576C26.7269 11.387 26.0958 12.1668 25.2736 12.66C26.0791 12.5636 26.8468 12.35 27.5602 12.0329C27.0273 12.8315 26.3515 13.533 25.5741 14.095Z" fill="#03A9F4"/>
</svg>
